<svg width="24" height="16" viewBox="0 0 24 16" fill="none" xmlns="http://www.w3.org/2000/svg">
<g id="americanexpress-light">
<rect id="card_bg" width="24" height="16" rx="2" fill="#DFE3E8"/>
<g id="amex">
<path id="Path" d="M1.825 5.77L2.095 6.43H1.19L1.465 5.77L1.645 5.33L1.825 5.77Z" fill="#296DB6"/>
<path id="Shape" fill-rule="evenodd" clip-rule="evenodd" d="M20.845 4.95001V4.12001H22.64V8.20001H20.95L20.45 7.41001V8.20001H18L17.755 7.59001H17.195L16.965 8.20001H15.53C15.0973 8.21087 14.6727 8.08104 14.32 7.83001V8.20001H11.915L11.335 7.47001V8.20001H2.165L1.935 7.59001H1.375L1.14 8.20001H0V7.59001H0.76L1 7.00001H2.315L2.555 7.57001H3.325L2.115 4.75001H1.225L0 7.59001V6.00001L0.8 4.10001H2.43L2.9 5.15001V4.10001H4.9L5.2 5.00001L5.5 4.12001H14.32V4.53001C14.6762 4.25193 15.1183 4.10692 15.57 4.12001H18.24L18.74 5.17001V4.12001H20.31L20.845 4.95001ZM6.295 7.57001H6.955V4.75001H5.85L5.29 6.38001L5.2 6.69001L5.11 6.38001L4.56 4.75001H3.455V7.57001H4.11V5.72001V5.29001L4.25 5.72001L4.89 7.57001H5.5L6.165 5.72001L6.295 5.29001V5.72001V7.57001ZM9.75 5.35001H8.165V5.85001H9.71V6.45001H8.165V6.95001H9.75V7.55001H7.5V4.75001H9.75V5.35001ZM11.205 6.57001L12.045 7.57001H12.915L11.975 6.53001C12.4226 6.47603 12.756 6.09075 12.745 5.64001C12.7486 5.38307 12.6404 5.13724 12.4485 4.9664C12.2565 4.79556 11.9998 4.71659 11.745 4.75001H10.2V7.57001H10.895V6.57001H11.205ZM13.74 7.57001H13.055V4.75001H13.74V7.57001ZM15.45 7.57001H15.49L15.765 6.97001H15.55C15.3425 6.98067 15.141 6.8986 15 6.746C14.8589 6.59339 14.793 6.38603 14.82 6.18001V6.14001C14.7962 5.93559 14.8636 5.73108 15.0042 5.58082C15.1448 5.43057 15.3445 5.34981 15.55 5.36001H16.295V4.75001H15.5C15.1264 4.72343 14.7601 4.86243 14.4982 5.13012C14.2363 5.39781 14.1053 5.76711 14.14 6.14001V6.18001C14.0982 6.54574 14.2198 6.91129 14.4723 7.17918C14.7247 7.44707 15.0824 7.59005 15.45 7.57001ZM18.38 7.57001L18.14 7.00001H16.805L16.565 7.59001H15.835L17.045 4.75001H17.945L19.15 7.57001H18.38ZM21.175 7.57001H21.975L22 4.73001H21.3V6.23001V6.57001L21.11 6.25001L20.11 4.75001H19.28V7.59001H19.95V6.02001V5.69001L20.13 6.00001L21.175 7.57001ZM17.95 6.43001L17.68 5.77001L17.5 5.33001L17.32 5.77001L17.06 6.43001H17.95ZM10.895 5.35001H11.685C11.7736 5.3401 11.8622 5.36817 11.9289 5.42725C11.9956 5.48633 12.0341 5.5709 12.035 5.66001C12.0375 5.7502 11.9999 5.83686 11.9323 5.89668C11.8648 5.9565 11.7742 5.98335 11.685 5.97001H10.895V5.35001Z" fill="#296DB6"/>
<path id="Shape_2" fill-rule="evenodd" clip-rule="evenodd" d="M24 10.08H22.535C22.284 10.0508 22.0327 10.1323 21.8464 10.3031C21.6602 10.474 21.5575 10.7174 21.565 10.97C21.5498 11.2035 21.6395 11.4315 21.8097 11.592C21.9799 11.7526 22.2128 11.8288 22.445 11.8H23.09C23.1912 11.7796 23.2948 11.8224 23.3522 11.9082C23.4096 11.994 23.4096 12.106 23.3522 12.1918C23.2948 12.2776 23.1912 12.3203 23.09 12.3H21.645V12.9H23.08C23.4771 12.9367 23.8497 12.7033 23.99 12.33V13.28C23.7169 13.4488 23.401 13.5356 23.08 13.53H15.27L14.69 12.8V13.53H12.975V12.5C12.7322 12.5751 12.4792 12.6122 12.225 12.61H11.945V13.53H9.42L9 12.92L8.57 13.53H4.44V9.45H8.58L9 10.05L9.43 9.45H24V10.08ZM23.73 10.68H22.5C22.3988 10.6596 22.2952 10.7024 22.2378 10.7882C22.1804 10.874 22.1804 10.986 22.2378 11.0718C22.2952 11.1576 22.3988 11.2003 22.5 11.18H23.155C23.5009 11.1444 23.8309 11.3336 23.975 11.65V10.1L23.73 10.68ZM7.355 10.68H5.77V11.18H7.325V11.77H5.77V12.27H7.355V12.87H5.09V10.08H7.355V10.68ZM9 12L9.68 12.9L10.54 12.92L9.4 11.5L10.52 10.08H9.69L9 10.97L8.315 10.09H7.465L8.6 11.5L7.5 12.9H8.295L9 12ZM12.18 11.97H11.33V12.9H10.66V10.08H12.215C12.4772 10.0521 12.7386 10.1399 12.9307 10.3205C13.1229 10.5011 13.2267 10.7565 13.215 11.02C13.2236 11.287 13.1164 11.5447 12.9209 11.7268C12.7254 11.9089 12.4607 11.9976 12.195 11.97H12.18ZM14.535 11.9L15.375 12.9H16.245L15.3 11.86C15.618 11.8225 15.8918 11.6182 16.0183 11.3241C16.1448 11.0299 16.1047 10.6907 15.9133 10.4341C15.7218 10.1775 15.408 10.0425 15.09 10.08H13.56V12.9H14.225V11.9H14.535ZM18.665 10.68H17.095V11.18H18.64V11.77H17.095V12.27H18.68V12.87H16.405V10.08H18.68L18.665 10.68ZM19.04 12.9H20.5C20.7483 12.9201 20.9935 12.8333 21.1739 12.6615C21.3543 12.4896 21.4529 12.249 21.445 12C21.4576 11.7689 21.3663 11.5442 21.196 11.3875C21.0257 11.2307 20.7943 11.1583 20.565 11.19H19.91C19.8088 11.2103 19.7052 11.1676 19.6478 11.0818C19.5904 10.996 19.5904 10.884 19.6478 10.7982C19.7052 10.7124 19.8088 10.6696 19.91 10.69H21.125L21.395 10.09H19.93C19.6807 10.0611 19.4311 10.1413 19.2453 10.3099C19.0594 10.4785 18.9554 10.7191 18.96 10.97C18.9448 11.2035 19.0345 11.4315 19.2047 11.592C19.3749 11.7526 19.6078 11.8288 19.84 11.8H20.5C20.6012 11.7796 20.7048 11.8224 20.7622 11.9082C20.8196 11.994 20.8196 12.106 20.7622 12.1918C20.7048 12.2776 20.6012 12.3203 20.5 12.3H19.04V12.9ZM15.03 10.68H14.24V11.3H15.03C15.1192 11.3133 15.2098 11.2865 15.2773 11.2267C15.3449 11.1668 15.3825 11.0802 15.38 10.99C15.3807 10.9004 15.3427 10.8148 15.2756 10.7553C15.2084 10.6959 15.1189 10.6684 15.03 10.68ZM11.345 10.68H12.155C12.3455 10.68 12.5 10.8345 12.5 11.025C12.5 11.2155 12.3455 11.37 12.155 11.37H11.345V10.68Z" fill="#296DB6"/>
</g>
</g>
</svg>
