<svg width="24" height="16" viewBox="0 0 24 16" fill="none" xmlns="http://www.w3.org/2000/svg">
<g id="bitcoin-light">
<rect id="card_bg" width="24" height="16" rx="2" fill="#DFE3E8"/>
<g id="bitcoin">
<path id="Path" d="M17.14 9.28001C16.623 11.361 14.9032 12.9254 12.7827 13.2435C10.6622 13.5617 8.55898 12.5708 7.45412 10.7332C6.34925 8.89557 6.46047 6.57327 7.73589 4.84964C9.01132 3.12601 11.1996 2.34068 13.28 2.86001C14.6442 3.19782 15.8179 4.06461 16.5421 5.26908C17.2663 6.47355 17.4814 7.91669 17.14 9.28001Z" fill="#F7941F"/>
<path id="Shape" fill-rule="evenodd" clip-rule="evenodd" d="M14.34 7.24C14.44 6.54 13.91 6.16 13.17 5.91L13.41 4.91L12.83 4.77L12.6 5.7L12.13 5.59L12.36 4.65L11.78 4.5L11.54 5.5L11.17 5.41L10.37 5.21L10.22 5.83C10.22 5.83 10.65 5.93 10.64 5.94C10.7197 5.94757 10.7931 5.9867 10.8438 6.04869C10.8946 6.11067 10.9184 6.19035 10.91 6.27L10.64 7.36L10.26 8.88C10.2148 8.97865 10.1044 9.0296 10 9L9.58001 8.9L9.29001 9.56L10.05 9.75L10.46 9.86L10.22 10.86L10.8 11.01L11 10L11.46 10.12L11.22 11.12L11.81 11.26L12.05 10.26C13.05 10.44 13.79 10.37 14.1 9.47C14.2244 9.22337 14.2413 8.93626 14.1466 8.67677C14.0519 8.41727 13.854 8.20851 13.6 8.1C14.0114 8.01129 14.3137 7.65999 14.34 7.24ZM13 9.11C12.8334 9.7765 11.7756 9.49183 11.3099 9.36652L11.3098 9.3665C11.2725 9.35645 11.239 9.34742 11.21 9.34L11.53 8.06C11.5722 8.07081 11.6246 8.08278 11.6843 8.09643L11.6844 8.09644C12.1775 8.20908 13.1695 8.43566 13 9.06V9.11ZM11.7691 7.50534C12.1672 7.60936 13.0246 7.83335 13.18 7.23H13.19C13.3376 6.63952 12.5578 6.44868 12.1535 6.34974C12.0922 6.33474 12.0395 6.32185 12 6.31L11.67 7.48C11.6983 7.48687 11.7317 7.49558 11.7691 7.50534Z" fill="white"/>
</g>
</g>
</svg>
