<svg width="24" height="16" viewBox="0 0 24 16" fill="none" xmlns="http://www.w3.org/2000/svg">
<g id="maestro-light">
<rect id="card_bg" width="24" height="16" rx="2" fill="#DFE3E8"/>
<g id="maestro">
<g id="Group" opacity="0.01">
<rect id="Rectangle" x="2.32" y="1.60001" width="19.35" height="12.8" fill="white"/>
</g>
<rect id="Rectangle_2" x="9.45" y="3.83" width="5.11" height="8.34" fill="#7272B5"/>
<path id="Path" d="M10 8C9.99454 6.37744 10.7312 4.84143 12 3.83C9.82641 2.12488 6.70762 2.37533 4.83398 4.40546C2.96034 6.43559 2.96034 9.56442 4.83398 11.5946C6.70762 13.6247 9.82641 13.8751 12 12.17C10.7289 11.1605 9.99157 9.62324 10 8Z" fill="#ED1C24"/>
<path id="Shape" fill-rule="evenodd" clip-rule="evenodd" d="M20.41 11.08V11.29H20.3V11.23L20.36 11.08H20.41ZM20.2786 11.1764L20.3 11.23V11.13L20.2786 11.1764ZM20.24 11.08L20.2786 11.1764L20.24 11.26L20.18 11.13V11.08H20.24ZM20.07 11.12V11.29H20V11.12H20.07Z" fill="#00A1DE"/>
<path id="Path_2" d="M20.58 7.99999C20.5748 10.0279 19.415 11.8757 17.5911 12.7622C15.7672 13.6486 13.5977 13.4188 12 12.17C13.2772 11.1631 14.0226 9.62639 14.0226 7.99999C14.0226 6.3736 13.2772 4.8369 12 3.82999C13.5957 2.57278 15.7696 2.33828 17.5968 3.22628C19.4239 4.11428 20.5826 5.96852 20.58 7.99999Z" fill="#00A1DE"/>
</g>
</g>
</svg>
