<svg width="24" height="16" viewBox="0 0 24 16" fill="none" xmlns="http://www.w3.org/2000/svg">
<g id="paypal-light">
<rect id="card_bg" width="24" height="16" rx="2" fill="#DFE3E8"/>
<g id="paypal">
<path id="Path" d="M10.17 12.66L10.34 11.56H8.10999L9.39999 3.43C9.39054 3.40762 9.39054 3.38237 9.39999 3.36H9.46999H12.58C13.3519 3.2584 14.1306 3.49125 14.72 4C14.8879 4.17557 15.0054 4.39323 15.06 4.63C15.1204 4.92022 15.1204 5.21977 15.06 5.51V5.76L15.24 5.86C15.5917 6.03568 15.8294 6.37891 15.87 6.77C15.9282 7.07727 15.9282 7.39273 15.87 7.7C15.8062 8.0728 15.6776 8.43155 15.49 8.76C15.3363 9.01799 15.1322 9.24244 14.89 9.42C14.6405 9.59058 14.3629 9.71583 14.07 9.79C13.7418 9.86401 13.4064 9.90091 13.07 9.9H12.83C12.6571 9.90324 12.4908 9.96693 12.36 10.08C12.2282 10.1933 12.1398 10.3488 12.11 10.52V10.62L11.81 12.56V12.63H10.17V12.66Z" fill="#253D80"/>
<path id="Path_2" d="M15.4 5.53999V5.71999C15.1761 7.49355 13.5657 8.75599 11.79 8.54999H10.88C10.6608 8.54851 10.4755 8.71222 10.45 8.92999L9.98001 11.93L9.85001 12.77C9.83807 12.8376 9.85692 12.9069 9.90141 12.9592C9.94591 13.0114 10.0114 13.041 10.08 13.04H11.69C11.884 13.0423 12.0502 12.9017 12.08 12.71V12.63L12.39 10.7V10.59C12.4193 10.402 12.5798 10.2626 12.77 10.26H13C14.5525 10.4426 15.9623 9.3406 16.16 7.78999C16.3526 7.14959 16.2301 6.45581 15.83 5.91999C15.7097 5.76946 15.5642 5.6409 15.4 5.53999V5.53999Z" fill="#189BD7"/>
<path id="Path_3" d="M15 5.37001H14.81H14.6C14.3354 5.32826 14.0678 5.3082 13.8 5.31001H11.33C11.2737 5.30086 11.2163 5.30086 11.16 5.31001C11.046 5.36557 10.9672 5.47435 10.95 5.60001L10.43 8.88001V8.98001C10.4555 8.76224 10.6407 8.59852 10.86 8.60001H11.77C13.5457 8.80601 15.1561 7.54356 15.38 5.77001V5.59001L15.04 5.45001L15 5.37001Z" fill="#242E65"/>
<path id="Path_4" d="M11 5.55C11.0172 5.42435 11.096 5.31556 11.21 5.26C11.2663 5.25085 11.3237 5.25085 11.38 5.26H13.82C14.0879 5.25819 14.3554 5.27826 14.62 5.32H14.83H15.02H15.11L15.45 5.46C15.5738 4.85104 15.4075 4.21914 15 3.75C14.3437 3.17603 13.4766 2.90393 12.61 3H9.50002C9.27864 2.99793 9.0902 3.16068 9.06002 3.38L7.77002 11.58C7.75853 11.6565 7.78043 11.7343 7.83016 11.7936C7.87989 11.8529 7.95267 11.888 8.03002 11.89H10L10.48 8.83L11 5.55Z" fill="#253D80"/>
</g>
</g>
</svg>
